<svg width="20" height="21" viewBox="0 0 20 21" fill="none" xmlns="http://www.w3.org/2000/svg">
<path d="M9.13589 2.25117C9.52162 1.5889 10.4784 1.5889 10.8641 2.25117L13.011 5.9372C13.1523 6.1798 13.3891 6.35183 13.6635 6.41125L17.8326 7.31404C18.5816 7.47625 18.8773 8.38617 18.3666 8.95768L15.5244 12.1386C15.3374 12.3479 15.2469 12.6263 15.2752 12.9056L15.7049 17.1496C15.7821 17.9121 15.0081 18.4745 14.3067 18.1654L10.4032 16.4453C10.1463 16.3321 9.85366 16.3321 9.59675 16.4453L5.69326 18.1654C4.99192 18.4745 4.21789 17.9121 4.2951 17.1496L4.7248 12.9056C4.75308 12.6263 4.66264 12.3479 4.47558 12.1386L1.63339 8.95768C1.12273 8.38617 1.41838 7.47625 2.16744 7.31404L6.3365 6.41125C6.61089 6.35183 6.84767 6.1798 6.98897 5.9372L9.13589 2.25117Z" fill="#EF4335"/>
</svg>
