<svg width="34" height="38" viewBox="0 0 34 38" fill="none" xmlns="http://www.w3.org/2000/svg">
<path d="M25.9095 26.7551C24.0044 28.3061 21.3373 29.4694 18.6701 29.4694C12.5737 29.4694 8.38249 24.8163 8.38249 18.6122C8.38249 12.4082 12.5737 8.14285 18.6701 8.14285C21.3373 8.14285 24.0044 8.91836 25.9095 10.8571L27.0526 12.0204L33.1489 6.20408L31.6248 5.04081C28.1957 1.93877 23.6234 0 18.6701 0C8.00147 0 0 8.14286 0 19C0 29.8571 8.00147 38 18.6701 38C23.6234 38 28.1957 36.0612 31.6248 32.9592L33.1489 31.7959L27.0526 25.5918L25.9095 26.7551Z" fill="#03030F"/>
<path d="M18.1908 25.0642C21.5397 25.0642 24.2546 22.3493 24.2546 19.0004C24.2546 15.6514 21.5397 12.9365 18.1908 12.9365C14.8418 12.9365 12.127 15.6514 12.127 19.0004C12.127 22.3493 14.8418 25.0642 18.1908 25.0642Z" fill="#EF4335"/>
</svg>
