<svg xmlns="http://www.w3.org/2000/svg" xmlns:xlink="http://www.w3.org/1999/xlink" width="54" height="54" viewBox="0 0 54 54"><defs><linearGradient id="a" x1="-0.165" y1="-0.138" x2="0.82" y2="0.82" gradientUnits="objectBoundingBox"><stop offset="0" stop-color="#45eec6"/><stop offset="1" stop-color="#7c7ce5"/></linearGradient></defs><g transform="translate(-1840 -969)"><circle cx="27" cy="27" r="27" transform="translate(1840 969)" fill="url(#a)"/><g transform="translate(1852.624 984.112)"><path d="M2.795,27.711A1.8,1.8,0,0,1,1,25.916V11.154A3.724,3.724,0,0,1,4.714,7.44H22.231a3.724,3.724,0,0,1,3.724,3.714v9.838a3.724,3.724,0,0,1-3.714,3.724H7.632a.787.787,0,0,0-.461.154L3.879,27.356A1.814,1.814,0,0,1,2.795,27.711ZM4.714,9.36A1.8,1.8,0,0,0,2.92,11.154V25.676l3.1-2.342A2.726,2.726,0,0,1,7.632,22.8h14.6a1.8,1.8,0,0,0,1.8-1.8V11.154A1.8,1.8,0,0,0,22.24,9.36Z" transform="translate(-1 -3.601)" fill="#fff"/><circle cx="1.44" cy="1.44" r="1.44" transform="translate(16.83 11.604)" fill="#fff"/><circle cx="1.44" cy="1.44" r="1.44" transform="translate(12.031 11.604)" fill="#fff"/><circle cx="1.44" cy="1.44" r="1.44" transform="translate(7.232 11.604)" fill="#fff"/><path d="M29.035,17.837a.96.96,0,0,1-.96-.96V7.154A1.8,1.8,0,0,0,26.281,5.36H6.96a.96.96,0,1,1,0-1.92H26.281A3.724,3.724,0,0,1,30,7.154v9.723A.96.96,0,0,1,29.035,17.837Z" transform="translate(-1.201 -3.44)" fill="#fff"/></g></g></svg>