<svg xmlns="http://www.w3.org/2000/svg" xmlns:xlink="http://www.w3.org/1999/xlink" width="54" height="54" viewBox="0 0 54 54"><defs><linearGradient id="a" x1="0.146" y1="0.17" x2="0.82" y2="0.82" gradientUnits="objectBoundingBox"><stop offset="0" stop-color="#45ee89"/><stop offset="1" stop-color="#36c670"/></linearGradient></defs><g transform="translate(-1841 -901)"><circle cx="27" cy="27" r="27" transform="translate(1841 901)" fill="url(#a)"/><path d="M24.964,6.517a14.554,14.554,0,0,0-22.9,17.558L0,31.611l7.714-2.025a14.505,14.505,0,0,0,6.954,1.77h.007A14.689,14.689,0,0,0,29.361,16.806a14.607,14.607,0,0,0-4.4-10.29ZM14.674,28.9A12.072,12.072,0,0,1,8.513,27.22l-.439-.262L3.5,28.157l1.219-4.463-.288-.459A12.116,12.116,0,1,1,26.9,16.806,12.228,12.228,0,0,1,14.674,28.9Zm6.632-9.057c-.36-.184-2.15-1.062-2.484-1.18s-.577-.184-.819.184-.937,1.18-1.153,1.429-.426.275-.786.092a9.9,9.9,0,0,1-4.948-4.326c-.374-.642.374-.6,1.068-1.986a.674.674,0,0,0-.033-.636c-.092-.184-.819-1.973-1.121-2.7-.295-.708-.6-.61-.819-.623s-.452-.013-.695-.013a1.347,1.347,0,0,0-.97.452,4.085,4.085,0,0,0-1.271,3.034,7.122,7.122,0,0,0,1.481,3.762,16.245,16.245,0,0,0,6.213,5.492c2.307,1,3.211,1.081,4.365.911a3.724,3.724,0,0,0,2.451-1.73,3.041,3.041,0,0,0,.21-1.73C21.909,20.116,21.667,20.024,21.306,19.847Z" transform="translate(1853.976 910.618)" fill="#fff"/></g></svg>