<svg xmlns="http://www.w3.org/2000/svg" width="159.55" height="43.958" viewBox="0 0 159.55 43.958"><g transform="translate(-260.305 -305.961)">
<style>
.letter {
 
  -webkit-animation: draw 4s infinite ease-in-out;
          animation: draw 3s infinite ease-in-out;
		  	animation-delay:0s;
			  opacity:0;
}
.letter.b{
	animation-delay:.2s;
}
.letter.c{
	animation-delay:.3s;
}
.letter.d{
	animation-delay:.4s;
}
.letter.e{
	animation-delay:.5s;
}
.letter.f{
	animation-delay:.6s;
}
.letter.g{
	animation-delay:.7s;
}
.letter.r{
		animation-delay:.8s;
}
.letter.h{
	animation-delay:.9s;
}
.letter.i{
	animation-delay:1s;
}
.letter.j{
	animation-delay:1.1s;
}

.letter.k,.letter.l,.letter.m,.letter.n,.letter.o,.letter.p,.letter.q {
	animation-delay:1.2s;
}
@keyframes draw {
  0% {
  opacity: 0;
	 transform: translateY(20%);
  }
  20% {
	     opacity: 1;
    transform: translateY(0%);
   
  }
    65% {
	     opacity: 1;
    transform: translateY(0%);
   
  }
  
    75% {
	     opacity: 0;
    transform: translateY(0%);
   
  }
   100% {
	     opacity: 0;
    transform: translateY(0%);
   
  }
}
</style>

<path class="letter" d="M262.258,336.1V348.06H260.3V323.492l2.158,2.021a7.779,7.779,0,0,1,13.4,5.379,7.584,7.584,0,0,1-2.261,5.519,7.453,7.453,0,0,1-5.517,2.294A7.55,7.55,0,0,1,262.258,336.1Zm9.937-1.062a5.915,5.915,0,0,0,0-8.257,5.518,5.518,0,0,0-4.112-1.679,5.654,5.654,0,0,0-4.146,1.712,5.552,5.552,0,0,0-1.679,4.077,5.737,5.737,0,0,0,5.825,5.827A5.519,5.519,0,0,0,272.2,335.039Z"/><path  class="letter b"  d="M277.849,313.725H279.8v24.537h-1.953Z"/><path class="letter c"  d="M289.568,338.7a7.8,7.8,0,1,1,5.619-13.192l2.193-2.021v14.77l-2.193-1.99A7.494,7.494,0,0,1,289.568,338.7Zm-4.113-11.923a5.827,5.827,0,0,0,8.225,8.257,5.65,5.65,0,0,0,1.713-4.147,5.84,5.84,0,0,0-9.938-4.11Z"/><path class="letter d" d="M299.881,323.492l1.679,1.37a5.562,5.562,0,0,1,4.181-1.747,5.849,5.849,0,0,1,5.893,5.859v9.288h-1.987v-9.288a3.932,3.932,0,0,0-1.13-2.775,3.69,3.69,0,0,0-1.234-.8,4.076,4.076,0,0,0-1.542-.291,3.843,3.843,0,0,0-2.776,1.13,3.733,3.733,0,0,0-1.131,2.741v9.288h-1.953Z"/><path class="letter e" d="M328.219,334.6a7.5,7.5,0,0,1-2.809,2.98,7.613,7.613,0,0,1-4.044,1.13,7.8,7.8,0,0,1,0-15.59,7.6,7.6,0,0,1,3.8,1.011,7.807,7.807,0,0,1,2.776,2.553l-10.074,8.874a5.457,5.457,0,0,0,3.495,1.166,5.638,5.638,0,0,0,3.033-.84,5.794,5.794,0,0,0,2.107-2.279Zm-3.05-8.087a5.764,5.764,0,0,0-3.8-1.4,5.733,5.733,0,0,0-5.791,5.789,5.833,5.833,0,0,0,.959,3.256Z"/><path class="letter f" d="M329.692,325.478v-1.986h2.673v-4.146l1.988-.959v5.105h2.6v1.986h-2.6v12.784h-1.988V325.478Z"/><path class="letter g"  d="M353.764,323.1a7.8,7.8,0,1,0,5.825,12.988v4.077a5.578,5.578,0,0,1-1.747,4.25,5.8,5.8,0,0,1-4.215,1.678,5.618,5.618,0,0,1-4.8-2.33l-1.507,1.233a7.961,7.961,0,0,0,14.255-4.831V323.474l-2.193,2.023A7.483,7.483,0,0,0,353.764,323.1Zm4.112,11.924a5.79,5.79,0,1,1,1.713-4.146A5.591,5.591,0,0,1,357.876,335.022Z" fill="#36c670"/><path class="letter h" d="M386.156,335.6a5.627,5.627,0,0,1-3.033.84,5.462,5.462,0,0,1-3.495-1.165L389.7,326.4a7.8,7.8,0,0,0-2.776-2.552,7.588,7.588,0,0,0-3.8-1.012,7.8,7.8,0,0,0,0,15.592,7.611,7.611,0,0,0,4.044-1.131,7.482,7.482,0,0,0,2.809-2.982l-1.713-.993A5.782,5.782,0,0,1,386.156,335.6Zm-8.824-4.984a5.733,5.733,0,0,1,5.791-5.792,5.777,5.777,0,0,1,3.8,1.4l-8.635,7.642A5.835,5.835,0,0,1,377.332,330.613Z" fill="#36c670"/><path class="letter i" d="M402.261,335.6a5.627,5.627,0,0,1-3.033.84,5.462,5.462,0,0,1-3.495-1.165l10.074-8.874a7.787,7.787,0,0,0-2.776-2.552,7.582,7.582,0,0,0-3.8-1.012,7.8,7.8,0,0,0,0,15.592,7.607,7.607,0,0,0,4.043-1.131,7.484,7.484,0,0,0,2.81-2.982l-1.712-.993A5.791,5.791,0,0,1,402.261,335.6Zm-8.824-4.984a5.733,5.733,0,0,1,5.791-5.792,5.774,5.774,0,0,1,3.8,1.4l-8.634,7.642A5.835,5.835,0,0,1,393.437,330.613Z" fill="#36c670"/><path class="letter j" d="M418.143,324.547a5.691,5.691,0,0,0-4.181-1.713,5.564,5.564,0,0,0-4.181,1.748l-1.678-1.371v14.768h1.953v-9.285a3.737,3.737,0,0,1,1.13-2.742,3.852,3.852,0,0,1,2.776-1.131,4.111,4.111,0,0,1,1.542.291,3.649,3.649,0,0,1,1.233.806,3.932,3.932,0,0,1,1.131,2.776v9.285h1.987v-9.285A5.65,5.65,0,0,0,418.143,324.547Z" fill="#36c670"/><path class="letter k" d="M371.666,348.013a1.637,1.637,0,0,1-.681,1.409,3.2,3.2,0,0,1-1.912.5,4.156,4.156,0,0,1-2.032-.413v-.919a4.953,4.953,0,0,0,1.013.376,4.214,4.214,0,0,0,1.043.137,2.367,2.367,0,0,0,1.2-.249.852.852,0,0,0,.087-1.409,5.22,5.22,0,0,0-1.294-.642,7.034,7.034,0,0,1-1.3-.6,1.781,1.781,0,0,1-.575-.576,1.515,1.515,0,0,1-.188-.772,1.469,1.469,0,0,1,.652-1.263,3.029,3.029,0,0,1,1.787-.465,5.246,5.246,0,0,1,2.067.43l-.352.807a4.767,4.767,0,0,0-1.787-.4,2.059,2.059,0,0,0-1.064.221.683.683,0,0,0-.359.609.757.757,0,0,0,.134.449,1.359,1.359,0,0,0,.434.352,9.569,9.569,0,0,0,1.148.484,4.291,4.291,0,0,1,1.574.854A1.51,1.51,0,0,1,371.666,348.013Z"/><path  class="letter l" d="M379.178,346.518a3.608,3.608,0,0,1-.807,2.5,2.837,2.837,0,0,1-2.229.9,2.956,2.956,0,0,1-1.56-.413,2.718,2.718,0,0,1-1.051-1.182,4.127,4.127,0,0,1-.37-1.806,3.6,3.6,0,0,1,.8-2.495,2.835,2.835,0,0,1,2.223-.894,2.767,2.767,0,0,1,2.184.916A3.6,3.6,0,0,1,379.178,346.518Zm-4.99,0a3.113,3.113,0,0,0,.5,1.912,1.99,1.99,0,0,0,2.955,0,3.085,3.085,0,0,0,.505-1.914,3.042,3.042,0,0,0-.505-1.9,1.772,1.772,0,0,0-1.491-.649,1.742,1.742,0,0,0-1.469.64A3.066,3.066,0,0,0,374.188,346.518Z"/><path class="letter m" d="M382.154,349.8h-.992v-9.3h.992Z"/><path  class="letter m" d="M385.435,343.249V347.5a1.709,1.709,0,0,0,.364,1.2,1.484,1.484,0,0,0,1.141.4,1.863,1.863,0,0,0,1.5-.562,2.833,2.833,0,0,0,.476-1.835v-3.442h.992v6.55h-.819l-.144-.878h-.054a1.987,1.987,0,0,1-.845.741,2.86,2.86,0,0,1-1.234.257,2.51,2.51,0,0,1-1.79-.568,2.419,2.419,0,0,1-.594-1.817v-4.285Z"/><path class="letter n" d="M394.374,349.1a3,3,0,0,0,.508-.04,3.077,3.077,0,0,0,.388-.079v.758a1.723,1.723,0,0,1-.475.128,3.548,3.548,0,0,1-.564.052q-1.9,0-1.9-2v-3.9h-.938v-.477l.938-.414.417-1.4h.575v1.518h1.9v.771h-1.9v3.856a1.327,1.327,0,0,0,.28.907A.978.978,0,0,0,394.374,349.1Z"/><path class="letter n" d="M396.74,341.474a.659.659,0,0,1,.167-.5.622.622,0,0,1,.831,0,.8.8,0,0,1,0,.995.606.606,0,0,1-.831,0A.671.671,0,0,1,396.74,341.474Zm1.076,8.325h-.991v-6.55h.991Z"/><path class="letter o" d="M405.818,346.518a3.613,3.613,0,0,1-.806,2.5,2.842,2.842,0,0,1-2.23.9,2.954,2.954,0,0,1-1.56-.413,2.72,2.72,0,0,1-1.052-1.182,4.127,4.127,0,0,1-.37-1.806,3.607,3.607,0,0,1,.8-2.495,2.838,2.838,0,0,1,2.223-.894,2.767,2.767,0,0,1,2.184.916A3.593,3.593,0,0,1,405.818,346.518Zm-4.99,0a3.106,3.106,0,0,0,.5,1.912,1.991,1.991,0,0,0,2.956,0,3.092,3.092,0,0,0,.5-1.914,3.049,3.049,0,0,0-.5-1.9,1.776,1.776,0,0,0-1.492-.649,1.744,1.744,0,0,0-1.47.64A3.079,3.079,0,0,0,400.828,346.518Z"/><path class="letter p" d="M412.284,349.8v-4.237a1.714,1.714,0,0,0-.365-1.2,1.485,1.485,0,0,0-1.141-.394,1.884,1.884,0,0,0-1.506.556,2.805,2.805,0,0,0-.478,1.835V349.8H407.8v-6.55h.808l.161.9h.048a2.015,2.015,0,0,1,.854-.749,2.78,2.78,0,0,1,1.225-.267,2.493,2.493,0,0,1,1.781.571,2.432,2.432,0,0,1,.6,1.826V349.8Z"/><path class="letter q" d="M419.782,348.013a1.632,1.632,0,0,1-.681,1.409,3.2,3.2,0,0,1-1.912.5,4.145,4.145,0,0,1-2.03-.413v-.919a4.912,4.912,0,0,0,1.011.376,4.216,4.216,0,0,0,1.044.137,2.363,2.363,0,0,0,1.194-.249.853.853,0,0,0,.088-1.409,5.233,5.233,0,0,0-1.3-.642,7.1,7.1,0,0,1-1.3-.6,1.768,1.768,0,0,1-.574-.576,1.515,1.515,0,0,1-.188-.772,1.47,1.47,0,0,1,.65-1.263,3.039,3.039,0,0,1,1.788-.465,5.236,5.236,0,0,1,2.067.43l-.352.807a4.759,4.759,0,0,0-1.787-.4,2.057,2.057,0,0,0-1.063.221.685.685,0,0,0-.359.609.751.751,0,0,0,.134.449,1.348,1.348,0,0,0,.434.352,9.422,9.422,0,0,0,1.148.484,4.292,4.292,0,0,1,1.574.854A1.51,1.51,0,0,1,419.782,348.013Z"/><path class="letter r" d="M377.7,313.037c-4.061,1.443-5.727,5.9-5.1,8.368a12.712,12.712,0,0,0-2.2,5.14,17.655,17.655,0,0,0-.473-2.462c2.375-3.014,1.2-9.705-3.235-12.806-5.513-3.855-11.513-4.31-14.527-5.316,3.06,3.462,3.385,4.528,6.537,12.037,2.882,6.867,6.911,7.752,9.4,7.264-.852-4.706-2.475-7.712-5.135-11.945,4.365,3.093,6.2,7.846,6.95,10.734a4.952,4.952,0,0,1-1.812,1.222,70.271,70.271,0,0,1,.749,12.846h2.828s-.561-8.395,1.907-15.166a3.911,3.911,0,0,1-.984-1.557,15,15,0,0,1,4.347-4.062,15.292,15.292,0,0,0-3.367,5.635c3.325,3.034,8.512-2.368,9.919-4.831,1.484-2.6,5.254-4.512,6.367-4.08C389.879,314.058,385.426,310.294,377.7,313.037Z" fill="#36c670"/></g></svg>